<mxfile host="5d27796c-209a-4b2f-bf4a-8de1b61162b8" modified="2020-09-11T04:18:44.992Z" agent="5.0 (Windows NT 10.0; Win64; x64) AppleWebKit/537.36 (KHTML, like Gecko) Code/1.49.0 Chrome/83.0.4103.122 Electron/9.2.1 Safari/537.36" etag="YDpZC7ww8S9YGz5mRn6F" version="13.1.3">
    <diagram id="6hGFLwfOUW9BJ-s0fimq" name="Page-1">
        <mxGraphModel dx="2161" dy="2034" grid="1" gridSize="10" guides="1" tooltips="1" connect="1" arrows="1" fold="1" page="1" pageScale="1" pageWidth="827" pageHeight="1169" math="0" shadow="0">
            <root>
                <mxCell id="0"/>
                <mxCell id="1" parent="0"/>
                <mxCell id="42" value="" style="rounded=0;whiteSpace=wrap;html=1;fontSize=28;fillColor=#eeeeee;strokeColor=#36393d;" vertex="1" parent="1">
                    <mxGeometry x="10" y="-120" width="390" height="710" as="geometry"/>
                </mxCell>
                <mxCell id="44" value="" style="rounded=0;whiteSpace=wrap;html=1;fontSize=28;" vertex="1" parent="1">
                    <mxGeometry x="270" y="-120" width="520" height="710" as="geometry"/>
                </mxCell>
                <mxCell id="3" value="" style="rounded=0;whiteSpace=wrap;html=1;fillColor=#3B3B3B;strokeColor=none;" vertex="1" parent="1">
                    <mxGeometry x="280" y="-30" width="240" height="530" as="geometry"/>
                </mxCell>
                <mxCell id="4" value="" style="rounded=0;whiteSpace=wrap;html=1;fillColor=#0D1E39;strokeColor=none;" vertex="1" parent="1">
                    <mxGeometry x="280" y="-30" width="240" height="80" as="geometry"/>
                </mxCell>
                <mxCell id="5" value="Game Finder" style="text;strokeColor=none;fillColor=none;html=1;fontSize=24;fontStyle=1;verticalAlign=middle;align=center;" vertex="1" parent="1">
                    <mxGeometry x="350" y="-30" width="100" height="40" as="geometry"/>
                </mxCell>
                <mxCell id="7" value="" style="rounded=1;whiteSpace=wrap;html=1;fillColor=#eeeeee;strokeColor=none;strokeWidth=4;" vertex="1" parent="1">
                    <mxGeometry x="290" y="10" width="140" height="20" as="geometry"/>
                </mxCell>
                <mxCell id="8" value="" style="rounded=1;whiteSpace=wrap;html=1;strokeColor=none;strokeWidth=5;fillColor=#4C6891;gradientColor=#7ea6e0;" vertex="1" parent="1">
                    <mxGeometry x="440" y="10" width="70" height="20" as="geometry"/>
                </mxCell>
                <mxCell id="10" style="edgeStyle=orthogonalEdgeStyle;rounded=0;orthogonalLoop=1;jettySize=auto;html=1;exitX=0.5;exitY=1;exitDx=0;exitDy=0;fontSize=12;" edge="1" parent="1" source="4" target="4">
                    <mxGeometry relative="1" as="geometry"/>
                </mxCell>
                <mxCell id="16" style="edgeStyle=orthogonalEdgeStyle;rounded=0;orthogonalLoop=1;jettySize=auto;html=1;exitX=0.5;exitY=0;exitDx=0;exitDy=0;" edge="1" parent="1" source="11" target="3">
                    <mxGeometry relative="1" as="geometry"/>
                </mxCell>
                <mxCell id="11" value="" style="rounded=0;whiteSpace=wrap;html=1;fillColor=#0D1E39;strokeColor=none;" vertex="1" parent="1">
                    <mxGeometry x="280" y="440" width="240" height="60" as="geometry"/>
                </mxCell>
                <mxCell id="12" value="*function to search for game by name &#9;*fetch method with endpoint" style="rounded=0;whiteSpace=wrap;html=1;fillColor=#3B3B3B;strokeColor=none;" vertex="1" parent="1">
                    <mxGeometry x="-160" y="780" width="1000" height="570" as="geometry"/>
                </mxCell>
                <mxCell id="13" value="details" style="rounded=1;whiteSpace=wrap;html=1;strokeColor=none;strokeWidth=5;fillColor=#56100C;fontSize=12;gradientColor=#832621;" vertex="1" parent="1">
                    <mxGeometry x="290" y="60" width="220" height="60" as="geometry"/>
                </mxCell>
                <mxCell id="15" value="" style="rounded=0;whiteSpace=wrap;html=1;fillColor=#171717;" vertex="1" parent="1">
                    <mxGeometry x="-160" y="780" width="1000" height="80" as="geometry"/>
                </mxCell>
                <mxCell id="17" value="Game Finder" style="text;strokeColor=none;fillColor=none;html=1;fontSize=28;fontStyle=1;verticalAlign=middle;align=center;" vertex="1" parent="1">
                    <mxGeometry x="470" y="780" width="510" height="80" as="geometry"/>
                </mxCell>
                <mxCell id="18" value="" style="rounded=1;whiteSpace=wrap;html=1;fillColor=#eeeeee;strokeColor=none;strokeWidth=4;" vertex="1" parent="1">
                    <mxGeometry x="-130" y="805" width="250" height="30" as="geometry"/>
                </mxCell>
                <mxCell id="22" style="edgeStyle=orthogonalEdgeStyle;rounded=0;orthogonalLoop=1;jettySize=auto;html=1;" edge="1" parent="1" source="20" target="12">
                    <mxGeometry relative="1" as="geometry"/>
                </mxCell>
                <mxCell id="20" value="" style="rounded=0;whiteSpace=wrap;html=1;fillColor=#000000;" vertex="1" parent="1">
                    <mxGeometry x="-160" y="1290" width="1000" height="60" as="geometry"/>
                </mxCell>
                <mxCell id="23" value="&#10;&#10;&lt;!--StartFragment--&gt;&lt;span style=&quot;color: rgb(240, 240, 240); font-family: Helvetica; font-size: 12px; font-style: normal; font-variant-ligatures: normal; font-variant-caps: normal; font-weight: 400; letter-spacing: normal; orphans: 2; text-align: center; text-indent: 0px; text-transform: none; widows: 2; word-spacing: 0px; -webkit-text-stroke-width: 0px; text-decoration-style: initial; text-decoration-color: initial; float: none; display: inline !important;&quot;&gt;details&lt;/span&gt;&lt;!--EndFragment--&gt;&#10;&#10;" style="rounded=1;whiteSpace=wrap;html=1;strokeColor=none;strokeWidth=5;fillColor=#56100C;fontSize=12;gradientColor=#832621;labelBackgroundColor=none;" vertex="1" parent="1">
                    <mxGeometry x="290" y="130" width="220" height="60" as="geometry"/>
                </mxCell>
                <mxCell id="24" value="&#10;&#10;&lt;!--StartFragment--&gt;&lt;span style=&quot;color: rgb(240, 240, 240); font-family: Helvetica; font-size: 12px; font-style: normal; font-variant-ligatures: normal; font-variant-caps: normal; font-weight: 400; letter-spacing: normal; orphans: 2; text-align: center; text-indent: 0px; text-transform: none; widows: 2; word-spacing: 0px; -webkit-text-stroke-width: 0px; text-decoration-style: initial; text-decoration-color: initial; float: none; display: inline !important;&quot;&gt;details&lt;/span&gt;&lt;!--EndFragment--&gt;&#10;&#10;" style="rounded=1;whiteSpace=wrap;html=1;strokeColor=none;strokeWidth=5;fillColor=#56100C;fontSize=12;gradientColor=#832621;labelBackgroundColor=none;" vertex="1" parent="1">
                    <mxGeometry x="290" y="200" width="220" height="60" as="geometry"/>
                </mxCell>
                <mxCell id="26" value="" style="rounded=1;whiteSpace=wrap;html=1;strokeColor=none;strokeWidth=5;fillColor=#f5f5f5;fontSize=12;gradientColor=#b3b3b3;" vertex="1" parent="1">
                    <mxGeometry x="290" y="270" width="220" height="60" as="geometry"/>
                </mxCell>
                <mxCell id="27" value="&#10;&#10;&lt;!--StartFragment--&gt;&lt;span style=&quot;color: rgb(240, 240, 240); font-family: Helvetica; font-size: 12px; font-style: normal; font-variant-ligatures: normal; font-variant-caps: normal; font-weight: 400; letter-spacing: normal; orphans: 2; text-align: center; text-indent: 0px; text-transform: none; widows: 2; word-spacing: 0px; -webkit-text-stroke-width: 0px; text-decoration-style: initial; text-decoration-color: initial; float: none; display: inline !important;&quot;&gt;details&lt;/span&gt;&lt;!--EndFragment--&gt;&#10;&#10;" style="rounded=1;whiteSpace=wrap;html=1;strokeColor=none;strokeWidth=5;fillColor=#56100C;fontSize=12;gradientColor=#832621;labelBackgroundColor=none;" vertex="1" parent="1">
                    <mxGeometry x="290" y="340" width="220" height="60" as="geometry"/>
                </mxCell>
                <mxCell id="28" value="game 1" style="text;strokeColor=none;fillColor=none;html=1;fontSize=24;fontStyle=1;verticalAlign=middle;align=center;fontColor=#AEA43F;" vertex="1" parent="1">
                    <mxGeometry x="290" y="60" width="110" height="30" as="geometry"/>
                </mxCell>
                <mxCell id="31" value="" style="rounded=1;whiteSpace=wrap;html=1;fillColor=#1ba1e2;strokeColor=#006EAF;fontColor=#ffffff;" vertex="1" parent="1">
                    <mxGeometry x="135" y="805" width="130" height="30" as="geometry"/>
                </mxCell>
                <mxCell id="19" value="Search" style="text;html=1;fontSize=16;fontStyle=1;verticalAlign=middle;align=center;" vertex="1" parent="1">
                    <mxGeometry x="140" y="805" width="120" height="30" as="geometry"/>
                </mxCell>
                <mxCell id="32" value="" style="rounded=1;whiteSpace=wrap;html=1;strokeColor=none;strokeWidth=5;fillColor=#f5f5f5;fontSize=12;gradientColor=#b3b3b3;" vertex="1" parent="1">
                    <mxGeometry x="-120" y="900" width="200" height="240" as="geometry"/>
                </mxCell>
                <mxCell id="33" value="" style="rounded=1;whiteSpace=wrap;html=1;strokeColor=none;strokeWidth=5;fillColor=#f5f5f5;fontSize=12;gradientColor=#b3b3b3;" vertex="1" parent="1">
                    <mxGeometry x="120" y="900" width="200" height="240" as="geometry"/>
                </mxCell>
                <mxCell id="34" value="" style="rounded=1;whiteSpace=wrap;html=1;strokeColor=none;strokeWidth=5;fillColor=#f5f5f5;fontSize=12;gradientColor=#b3b3b3;" vertex="1" parent="1">
                    <mxGeometry x="360" y="900" width="200" height="240" as="geometry"/>
                </mxCell>
                <mxCell id="35" value="" style="rounded=1;whiteSpace=wrap;html=1;strokeColor=none;strokeWidth=5;fillColor=#f5f5f5;fontSize=12;gradientColor=#b3b3b3;" vertex="1" parent="1">
                    <mxGeometry x="600" y="900" width="200" height="240" as="geometry"/>
                </mxCell>
                <mxCell id="36" value="game 2" style="text;strokeColor=none;fillColor=none;html=1;fontSize=24;fontStyle=1;verticalAlign=middle;align=center;fontColor=#AEA43F;" vertex="1" parent="1">
                    <mxGeometry x="290" y="130" width="110" height="30" as="geometry"/>
                </mxCell>
                <mxCell id="37" value="game 3" style="text;strokeColor=none;fillColor=none;html=1;fontSize=24;fontStyle=1;verticalAlign=middle;align=center;fontColor=#AEA43F;" vertex="1" parent="1">
                    <mxGeometry x="290" y="200" width="110" height="30" as="geometry"/>
                </mxCell>
                <mxCell id="39" value="game 4" style="text;strokeColor=none;fillColor=none;html=1;fontSize=24;fontStyle=1;verticalAlign=middle;align=center;fontColor=#AEA43F;" vertex="1" parent="1">
                    <mxGeometry x="290" y="340" width="110" height="30" as="geometry"/>
                </mxCell>
                <mxCell id="40" value="game 1" style="text;strokeColor=none;fillColor=none;html=1;fontSize=24;fontStyle=1;verticalAlign=middle;align=center;fontColor=#171717;" vertex="1" parent="1">
                    <mxGeometry x="-75" y="1080" width="110" height="30" as="geometry"/>
                </mxCell>
                <mxCell id="41" value="&#10;&#10;&lt;!--StartFragment--&gt;&lt;span style=&quot;color: rgb(240, 240, 240); font-family: Helvetica; font-size: 12px; font-style: normal; font-variant-ligatures: normal; font-variant-caps: normal; font-weight: 400; letter-spacing: normal; orphans: 2; text-align: center; text-indent: 0px; text-transform: none; widows: 2; word-spacing: 0px; -webkit-text-stroke-width: 0px; text-decoration-style: initial; text-decoration-color: initial; float: none; display: inline !important;&quot;&gt;details&lt;/span&gt;&lt;!--EndFragment--&gt;&#10;&#10;" style="rounded=1;whiteSpace=wrap;html=1;strokeColor=none;strokeWidth=5;fillColor=#56100C;fontSize=12;gradientColor=#832621;labelBackgroundColor=none;" vertex="1" parent="1">
                    <mxGeometry x="290" y="270" width="220" height="60" as="geometry"/>
                </mxCell>
                <mxCell id="38" value="game 4" style="text;strokeColor=none;fillColor=none;html=1;fontSize=24;fontStyle=1;verticalAlign=middle;align=center;fontColor=#AEA43F;" vertex="1" parent="1">
                    <mxGeometry x="290" y="270" width="110" height="30" as="geometry"/>
                </mxCell>
                <mxCell id="46" value="Header/footer:&amp;nbsp;0D1E39&lt;br&gt;Background:&amp;nbsp;3B3B3B&lt;br&gt;Tiles: Gradient(56100C,&amp;nbsp;832621)&lt;br&gt;Tile Text:&amp;nbsp;AEA43F&lt;br&gt;&lt;div style=&quot;text-align: justify&quot;&gt;&lt;/div&gt;" style="text;html=1;strokeColor=none;fillColor=none;align=center;verticalAlign=middle;whiteSpace=wrap;rounded=0;fontSize=21;" vertex="1" parent="1">
                    <mxGeometry x="520" y="90" width="270" height="340" as="geometry"/>
                </mxCell>
                <mxCell id="47" value="color codes" style="text;html=1;strokeColor=none;fillColor=none;align=center;verticalAlign=middle;whiteSpace=wrap;rounded=0;fontSize=28;fontStyle=5" vertex="1" parent="1">
                    <mxGeometry x="580" y="145" width="160" height="45" as="geometry"/>
                </mxCell>
                <mxCell id="9" value="Search" style="text;strokeColor=none;fillColor=none;html=1;fontSize=12;fontStyle=1;verticalAlign=middle;align=center;fontColor=#3B3B3B;" vertex="1" parent="1">
                    <mxGeometry x="425" width="100" height="40" as="geometry"/>
                </mxCell>
                <mxCell id="48" value="" style="shape=ext;double=1;rounded=0;whiteSpace=wrap;html=1;strokeColor=#000000;strokeWidth=5;fillColor=#56100C;gradientColor=#832621;fontSize=12;fontColor=#3B3B3B;" vertex="1" parent="1">
                    <mxGeometry x="460" y="65" width="40" height="50" as="geometry"/>
                </mxCell>
            </root>
        </mxGraphModel>
    </diagram>
</mxfile>